<svg width="12" height="12" viewBox="0 0 12 12" fill="none" xmlns="http://www.w3.org/2000/svg">
<circle cx="6" cy="6" r="6" fill="url(#paint0_linear_12_6)"/>
<path d="M5.5 9.96875C5.00694 9.90625 4.54688 9.76042 4.11979 9.53125C3.69271 9.30208 3.32292 9.01042 3.01042 8.65625C2.69792 8.30208 2.45139 7.89757 2.27083 7.44271C2.09028 6.98785 2 6.50694 2 6C2 5.39583 2.12153 4.83854 2.36458 4.32813C2.60764 3.81771 2.9375 3.375 3.35417 3H2.5V2.25H4.75V4.5H4V3.4375C3.61806 3.73611 3.31424 4.10764 3.08854 4.55208C2.86285 4.99653 2.75 5.47917 2.75 6C2.75 6.81944 3.01389 7.52951 3.54167 8.13021C4.06944 8.7309 4.72222 9.09028 5.5 9.20833V9.96875ZM5.46875 7.5L4.05208 6.08333L4.58333 5.55208L5.46875 6.4375L7.41667 4.5L7.94792 5.02083L5.46875 7.5ZM7.25 9.75V7.5H8V8.5625C8.38194 8.26389 8.68576 7.89236 8.91146 7.44792C9.13715 7.00347 9.25 6.52083 9.25 6C9.25 5.18056 8.98611 4.47049 8.45833 3.86979C7.93056 3.2691 7.27778 2.90972 6.5 2.79167V2.03125C7.49306 2.15625 8.32465 2.59201 8.99479 3.33854C9.66493 4.08507 10 4.97222 10 6C10 6.60417 9.87847 7.16146 9.63542 7.67188C9.39236 8.18229 9.0625 8.625 8.64583 9H9.5V9.75H7.25Z" fill="url(#paint1_linear_12_6)"/>
<defs>
<linearGradient id="paint0_linear_12_6" x1="6" y1="0" x2="6" y2="12" gradientUnits="userSpaceOnUse">
<stop stop-color="#C6C6C6"/>
<stop offset="1" stop-color="#383838" stop-opacity="0.1"/>
</linearGradient>
<linearGradient id="paint1_linear_12_6" x1="6" y1="2.03125" x2="6" y2="9.96875" gradientUnits="userSpaceOnUse">
<stop stop-color="#6B46C1"/>
<stop offset="1" stop-color="#764BA2"/>
</linearGradient>
</defs>
</svg>
